# xmcd CD database file
#
# Track frame offsets:
#	150
#	23429
#	46733
#	63792
#	79715
#	91662
#	112034
#	126996
#	139404
#	155390
#	183074
#	205761
#	224274
#	241437
#	259091
#	275020
#
# Disc length: 4434 seconds
#
# Revision: 4
# Processed by: cddbd v1.5.2PL0 Copyright (c) Steve Scherf et al.
# Submitted via: CDex 1.51
#
DISCID=d6115010
DTITLE=JOE COCKER - Blues and Ballads
DYEAR=1993
DGENRE=Blues Rock
TTITLE0=With A Little Help From My Friends
TTITLE1=Let´s Go Get Stoned
TTITLE2=It´s A Sin When You Love Somebody
TTITLE3=Something
TTITLE4=You Are So Beautiful
TTITLE5=Black-Eyed Blues
TTITLE6=Forgive Me Now
TTITLE7=Guilty
TTITLE8=Jack-A-Diamonds
TTITLE9=St. James Infirmary Blues
TTITLE10=Let It Be
TTITLE11=Oh Mama
TTITLE12=Lucinda
TTITLE13=Early In The Morning
TTITLE14=I Can Stand A Little Rain
TTITLE15=Blue Medley - I'll Drown In My Own Tears - When Something Is Wrong With My Baby - I've Been Loving You Too Long
EXTD=YEAR: 1993
EXTT0=
EXTT1=
EXTT2=
EXTT3=
EXTT4=
EXTT5=
EXTT6=
EXTT7=
EXTT8=
EXTT9=
EXTT10=
EXTT11=
EXTT12=
EXTT13=
EXTT14=
EXTT15=I´ll drown in my own tears\nWhen something is wrong with my baby\nI´ve been loving you too long\n
PLAYORDER=
